Semi.ufo
<glyph name="dollar" format="1">
  <advance width="608"/>
  <unicode hex="0024"/>
  <outline>
    <contour>
      <point x="261" y="818" type="line"/>
      <point x="370" y="818" type="line"/>
      <point x="366" y="646" type="line"/>
      <point x="266" y="646" type="line"/>
    </contour>
    <contour>
      <point x="266" y="58" type="line"/>
      <point x="366" y="58" type="line"/>
      <point x="370" y="-112" type="line"/>
      <point x="261" y="-112" type="line"/>
    </contour>
    <contour>
      <point x="446" y="496" type="line"/>
      <point x="416" y="554"/>
      <point x="376" y="599"/>
      <point x="316" y="599" type="curve" smooth="yes"/>
      <point x="254" y="599"/>
      <point x="227" y="570"/>
      <point x="227" y="526" type="curve" smooth="yes"/>
      <point x="227" y="462"/>
      <point x="303" y="440"/>
      <point x="388" y="408" type="curve" smooth="yes"/>
      <point x="476" y="376"/>
      <point x="566" y="316"/>
      <point x="566" y="194" type="curve" smooth="yes"/>
      <point x="566" y="66"/>
      <point x="470" y="-10"/>
      <point x="314" y="-10" type="curve" smooth="yes"/>
      <point x="190" y="-10"/>
      <point x="84" y="70"/>
      <point x="40" y="172" type="curve"/>
      <point x="144" y="244" type="line"/>
      <point x="190" y="156"/>
      <point x="240" y="108"/>
      <point x="318" y="108" type="curve" smooth="yes"/>
      <point x="384" y="108"/>
      <point x="414" y="139"/>
      <point x="414" y="191" type="curve" smooth="yes"/>
      <point x="414" y="257"/>
      <point x="346" y="282"/>
      <point x="264" y="313" type="curve" smooth="yes"/>
      <point x="194" y="339"/>
      <point x="79" y="393"/>
      <point x="79" y="526" type="curve" smooth="yes"/>
      <point x="79" y="626"/>
      <point x="176" y="710"/>
      <point x="312" y="710" type="curve" smooth="yes"/>
      <point x="447" y="710"/>
      <point x="518" y="636"/>
      <point x="556" y="562" type="curve"/>
    </contour>
  </outline>
</glyph>
<glyph name="asterisk" format="1">
  <advance width="592"/>
  <unicode hex="002A"/>
  <outline>
    <contour>
      <point x="490" y="602" type="line"/>
      <point x="527" y="490" type="line"/>
      <point x="307" y="444" type="line"/>
      <point x="285" y="509" type="line"/>
    </contour>
    <contour>
      <point x="476" y="331" type="line"/>
      <point x="379" y="262" type="line"/>
      <point x="269" y="456" type="line"/>
      <point x="323" y="496" type="line"/>
    </contour>
    <contour>
      <point x="213" y="262" type="line"/>
      <point x="116" y="331" type="line"/>
      <point x="269" y="496" type="line"/>
      <point x="323" y="456" type="line"/>
    </contour>
    <contour>
      <point x="65" y="490" type="line"/>
      <point x="102" y="602" type="line"/>
      <point x="307" y="509" type="line"/>
      <point x="285" y="444" type="line"/>
    </contour>
    <contour>
      <point x="236" y="700" type="line"/>
      <point x="356" y="700" type="line"/>
      <point x="330" y="476" type="line"/>
      <point x="262" y="476" type="line"/>
    </contour>
  </outline>
</glyph>
<glyph name="comma" format="1">
  <advance width="318"/>
  <unicode hex="002C"/>
  <outline>
    <contour>
      <point x="128" y="110" type="line"/>
      <point x="259" y="78" type="line"/>
      <point x="138" y="-172" type="line"/>
      <point x="40" y="-149" type="line"/>
    </contour>
  </outline>
</glyph>
<glyph name="four" format="1">
  <advance width="663"/>
  <unicode hex="0034"/>
  <outline>
    <contour>
      <point x="16" y="129" type="line"/>
      <point x="134" y="237" type="line"/>
      <point x="441" y="237" type="line" smooth="yes"/>
      <point x="458" y="252" type="line" smooth="yes"/>
      <point x="625" y="252" type="line"/>
      <point x="625" y="129" type="line"/>
    </contour>
    <contour>
      <point x="162" y="164" type="line"/>
      <point x="16" y="129" type="line"/>
      <point x="416" y="700" type="line"/>
      <point x="515" y="700" type="line"/>
      <point x="515" y="0" type="line"/>
      <point x="366" y="0" type="line"/>
      <point x="366" y="165" type="line" smooth="yes"/>
      <point x="380" y="176" type="line" smooth="yes"/>
      <point x="380" y="471" type="line"/>
    </contour>
  </outline>
</glyph>
<glyph name="question" format="1">
  <advance width="606"/>
  <unicode hex="003F"/>
  <outline>
    <contour>
      <point x="198" y="54" type="curve" smooth="yes"/>
      <point x="198" y="94"/>
      <point x="233" y="128"/>
      <point x="281" y="128" type="curve" smooth="yes"/>
      <point x="329" y="128"/>
      <point x="363" y="94"/>
      <point x="363" y="54" type="curve" smooth="yes"/>
      <point x="363" y="14"/>
      <point x="329" y="-22"/>
      <point x="281" y="-22" type="curve" smooth="yes"/>
      <point x="233" y="-22"/>
      <point x="198" y="14"/>
    </contour>
    <contour>
      <point x="208" y="370" type="line"/>
      <point x="341" y="370" type="line"/>
      <point x="331" y="192" type="line"/>
      <point x="228" y="192" type="line"/>
    </contour>
    <contour>
      <point x="419" y="500" type="curve" smooth="yes"/>
      <point x="419" y="566"/>
      <point x="372" y="605"/>
      <point x="296" y="605" type="curve" smooth="yes"/>
      <point x="234" y="605"/>
      <point x="178" y="572"/>
      <point x="142" y="518" type="curve"/>
      <point x="52" y="591" type="line"/>
      <point x="116" y="669"/>
      <point x="187" y="717"/>
      <point x="306" y="717" type="curve" smooth="yes"/>
      <point x="436" y="717"/>
      <point x="551" y="632"/>
      <point x="551" y="500" type="curve" smooth="yes"/>
      <point x="551" y="359"/>
      <point x="403" y="282"/>
      <point x="288" y="282" type="curve"/>
      <point x="238" y="370" type="line"/>
      <point x="358" y="370"/>
      <point x="419" y="442"/>
    </contour>
  </outline>
</glyph>
<glyph name="O" format="1">
  <advance width="811"/>
  <unicode hex="004F"/>
  <outline>
    <contour>
      <point x="188" y="350" type="curve" smooth="yes"/>
      <point x="188" y="216"/>
      <point x="278" y="120"/>
      <point x="406" y="120" type="curve" smooth="yes"/>
      <point x="534" y="120"/>
      <point x="624" y="216"/>
      <point x="624" y="350" type="curve" smooth="yes"/>
      <point x="624" y="484"/>
      <point x="537" y="580"/>
      <point x="406" y="580" type="curve" smooth="yes"/>
      <point x="278" y="580"/>
      <point x="188" y="484"/>
    </contour>
    <contour>
      <point x="36" y="350" type="curve" smooth="yes"/>
      <point x="36" y="562"/>
      <point x="195" y="714"/>
      <point x="406" y="714" type="curve" smooth="yes"/>
      <point x="618" y="714"/>
      <point x="776" y="562"/>
      <point x="776" y="350" type="curve" smooth="yes"/>
      <point x="776" y="138"/>
      <point x="621" y="-18"/>
      <point x="406" y="-18" type="curve" smooth="yes"/>
      <point x="191" y="-18"/>
      <point x="36" y="138"/>
    </contour>
  </outline>
</glyph>
<glyph name="bracketleft" format="1">
  <advance width="343"/>
  <unicode hex="005B"/>
  <outline>
    <contour>
      <point x="223" y="665" type="line"/>
      <point x="223" y="-105" type="line"/>
      <point x="324" y="-105" type="line"/>
      <point x="324" y="-220" type="line"/>
      <point x="93" y="-220" type="line"/>
      <point x="93" y="780" type="line"/>
      <point x="324" y="780" type="line"/>
      <point x="324" y="665" type="line"/>
    </contour>
  </outline>
</glyph>
<glyph name="w" format="1">
  <advance width="736"/>
  <unicode hex="0077"/>
  <outline>
    <contour>
      <point x="602" y="460" type="line"/>
      <point x="740" y="460" type="line"/>
      <point x="515" y="-30" type="line"/>
      <point x="480" y="152" type="line"/>
    </contour>
    <contour>
      <point x="335" y="322" type="line"/>
      <point x="365" y="495" type="line"/>
      <point x="530" y="143" type="line"/>
      <point x="515" y="-30" type="line"/>
    </contour>
    <contour>
      <point x="365" y="495" type="line"/>
      <point x="395" y="322" type="line"/>
      <point x="222" y="-30" type="line"/>
      <point x="207" y="143" type="line"/>
    </contour>
    <contour>
      <point x="-4" y="460" type="line"/>
      <point x="135" y="460" type="line"/>
      <point x="257" y="152" type="line"/>
      <point x="222" y="-30" type="line"/>
    </contour>
  </outline>
</glyph>
<glyph name="x" format="1">
  <advance width="498"/>
  <unicode hex="0078"/>
  <outline>
    <contour>
      <point x="344" y="460" type="line"/>
      <point x="488" y="460" type="line"/>
      <point x="318" y="236" type="line"/>
      <point x="498" y="0" type="line"/>
      <point x="354" y="0" type="line"/>
      <point x="252" y="146" type="line"/>
      <point x="149" y="0" type="line"/>
      <point x="0" y="0" type="line"/>
      <point x="182" y="236" type="line"/>
      <point x="10" y="460" type="line"/>
      <point x="159" y="460" type="line"/>
      <point x="252" y="328" type="line"/>
    </contour>
  </outline>
</glyph>
<glyph name="registered" format="1">
  <advance width="800"/>
  <unicode hex="00AE"/>
  <outline>
    <contour>
      <point x="368" y="336" type="line"/>
      <point x="451" y="336" type="line"/>
      <point x="579" y="150" type="line"/>
      <point x="477" y="150" type="line"/>
    </contour>
    <contour>
      <point x="260" y="570" type="line"/>
      <point x="346" y="570" type="line"/>
      <point x="346" y="150" type="line"/>
      <point x="260" y="150" type="line"/>
    </contour>
    <contour>
      <point x="312" y="496" type="line"/>
      <point x="312" y="570" type="line"/>
      <point x="402" y="570" type="line" smooth="yes"/>
      <point x="502" y="570"/>
      <point x="558" y="515"/>
      <point x="558" y="440" type="curve" smooth="yes"/>
      <point x="558" y="361"/>
      <point x="502" y="307"/>
      <point x="402" y="307" type="curve" smooth="yes"/>
      <point x="312" y="307" type="line"/>
      <point x="312" y="375" type="line"/>
      <point x="396" y="375" type="line" smooth="yes"/>
      <point x="441" y="375"/>
      <point x="470" y="396"/>
      <point x="470" y="436" type="curve" smooth="yes"/>
      <point x="470" y="476"/>
      <point x="441" y="496"/>
      <point x="396" y="496" type="curve" smooth="yes"/>
    </contour>
    <contour>
      <point x="95" y="350" type="curve" smooth="yes"/>
      <point x="95" y="172"/>
      <point x="227" y="40"/>
      <point x="400" y="40" type="curve" smooth="yes"/>
      <point x="573" y="40"/>
      <point x="705" y="172"/>
      <point x="705" y="350" type="curve" smooth="yes"/>
      <point x="705" y="528"/>
      <point x="573" y="660"/>
      <point x="400" y="660" type="curve" smooth="yes"/>
      <point x="227" y="660"/>
      <point x="95" y="528"/>
    </contour>
    <contour>
      <point x="40" y="350" type="curve" smooth="yes"/>
      <point x="40" y="559"/>
      <point x="196" y="710"/>
      <point x="400" y="710" type="curve" smooth="yes"/>
      <point x="604" y="710"/>
      <point x="760" y="559"/>
      <point x="760" y="350" type="curve" smooth="yes"/>
      <point x="760" y="141"/>
      <point x="604" y="-10"/>
      <point x="400" y="-10" type="curve" smooth="yes"/>
      <point x="196" y="-10"/>
      <point x="40" y="141"/>
    </contour>
  </outline>
</glyph>
<glyph name="mu" format="1">
  <advance width="560"/>
  <unicode hex="00B5"/>
  <outline>
    <contour>
      <point x="366" y="0" type="line"/>
      <point x="366" y="460" type="line"/>
      <point x="496" y="460" type="line"/>
      <point x="496" y="0" type="line"/>
    </contour>
    <contour>
      <point x="199" y="180" type="line" smooth="yes"/>
      <point x="199" y="120"/>
      <point x="221" y="86"/>
      <point x="275" y="86" type="curve" smooth="yes"/>
      <point x="329" y="86"/>
      <point x="366" y="122"/>
      <point x="366" y="180" type="curve"/>
      <point x="398" y="184" type="line"/>
      <point x="398" y="75"/>
      <point x="334" y="-10"/>
      <point x="226" y="-10" type="curve" smooth="yes"/>
      <point x="118" y="-10"/>
      <point x="64" y="52"/>
      <point x="64" y="166" type="curve" smooth="yes"/>
      <point x="64" y="460" type="line"/>
      <point x="199" y="460" type="line"/>
    </contour>
    <contour>
      <point x="64" y="460" type="line"/>
      <point x="190" y="460" type="line"/>
      <point x="190" y="-320" type="line"/>
      <point x="64" y="-320" type="line"/>
    </contour>
  </outline>
</glyph>
<glyph name="cedilla" format="1">
  <advance width="380"/>
  <unicode hex="00B8"/>
  <outline>
    <contour>
      <point x="188" y="68" type="line"/>
      <point x="283" y="66" type="line"/>
      <point x="189" y="-72" type="line"/>
      <point x="100" y="-119" type="line"/>
    </contour>
    <contour>
      <point x="318" y="-142" type="curve"/>
      <point x="232" y="-136" type="line"/>
      <point x="232" y="-110"/>
      <point x="207" y="-102"/>
      <point x="175" y="-102" type="curve" smooth="yes"/>
      <point x="165" y="-102"/>
      <point x="132" y="-103"/>
      <point x="100" y="-119" type="curve"/>
      <point x="158" y="-76" type="line"/>
      <point x="184" y="-54"/>
      <point x="206" y="-52"/>
      <point x="232" y="-52" type="curve" smooth="yes"/>
      <point x="270" y="-52"/>
      <point x="318" y="-81"/>
    </contour>
    <contour>
      <point x="318" y="-142" type="line"/>
      <point x="318" y="-211"/>
      <point x="253" y="-246"/>
      <point x="193" y="-246" type="curve" smooth="yes"/>
      <point x="143" y="-246"/>
      <point x="108" y="-237"/>
      <point x="66" y="-207" type="curve"/>
      <point x="108" y="-148" type="line"/>
      <point x="132" y="-166"/>
      <point x="157" y="-172"/>
      <point x="179" y="-172" type="curve" smooth="yes"/>
      <point x="213" y="-172"/>
      <point x="232" y="-160"/>
      <point x="232" y="-136" type="curve"/>
    </contour>
  </outline>
</glyph>
<glyph name="threequarters" format="1">
  <advance width="861"/>
  <unicode hex="00BE"/>
  <outline>
    <contour>
      <point x="692" y="700" type="line"/>
      <point x="778" y="700" type="line"/>
      <point x="258" y="0" type="line"/>
      <point x="172" y="0" type="line"/>
    </contour>
    <contour>
      <point x="157" y="485" type="curve"/>
      <point x="157" y="526" type="line"/>
      <point x="205" y="526"/>
      <point x="237" y="555"/>
      <point x="237" y="588" type="curve" smooth="yes"/>
      <point x="237" y="618"/>
      <point x="219" y="637"/>
      <point x="184" y="637" type="curve" smooth="yes"/>
      <point x="150" y="637"/>
      <point x="126" y="614"/>
      <point x="126" y="582" type="curve"/>
      <point x="45" y="582" type="line"/>
      <point x="45" y="654"/>
      <point x="100" y="708"/>
      <point x="184" y="708" type="curve" smooth="yes"/>
      <point x="272" y="708"/>
      <point x="323" y="654"/>
      <point x="323" y="592" type="curve" smooth="yes"/>
      <point x="323" y="524"/>
      <point x="251" y="485"/>
    </contour>
    <contour>
      <point x="181" y="271" type="curve" smooth="yes"/>
      <point x="85" y="271"/>
      <point x="27" y="335"/>
      <point x="27" y="407" type="curve"/>
      <point x="113" y="407" type="line"/>
      <point x="113" y="365"/>
      <point x="145" y="343"/>
      <point x="184" y="343" type="curve" smooth="yes"/>
      <point x="223" y="343"/>
      <point x="249" y="363"/>
      <point x="249" y="402" type="curve" smooth="yes"/>
      <point x="249" y="442"/>
      <point x="217" y="467"/>
      <point x="157" y="467" type="curve"/>
      <point x="157" y="513" type="line"/>
      <point x="259" y="513"/>
      <point x="335" y="477"/>
      <point x="335" y="393" type="curve" smooth="yes"/>
      <point x="335" y="321"/>
      <point x="275" y="271"/>
    </contour>
    <contour>
      <point x="464" y="77" type="line"/>
      <point x="536" y="142" type="line"/>
      <point x="720" y="142" type="line" smooth="yes"/>
      <point x="730" y="152" type="line" smooth="yes"/>
      <point x="830" y="152" type="line"/>
      <point x="830" y="77" type="line"/>
    </contour>
    <contour>
      <point x="552" y="98" type="line"/>
      <point x="464" y="77" type="line"/>
      <point x="705" y="420" type="line"/>
      <point x="764" y="420" type="line"/>
      <point x="764" y="0" type="line"/>
      <point x="675" y="0" type="line"/>
      <point x="675" y="99" type="line" smooth="yes"/>
      <point x="684" y="105" type="line" smooth="yes"/>
      <point x="684" y="284" type="line"/>
    </contour>
  </outline>
</glyph>
<glyph name="Adieresis" format="1">
  <advance width="712"/>
  <unicode hex="00C4"/>
  <outline>
    <contour>
      <point x="173" y="158" type="line"/>
      <point x="190" y="272" type="line"/>
      <point x="527" y="272" type="line"/>
      <point x="543" y="158" type="line"/>
    </contour>
    <contour>
      <point x="356" y="472" type="line"/>
      <point x="252" y="231" type="line"/>
      <point x="255" y="199" type="line"/>
      <point x="163" y="0" type="line"/>
      <point x="0" y="0" type="line"/>
      <point x="356" y="742" type="line"/>
      <point x="712" y="0" type="line"/>
      <point x="549" y="0" type="line"/>
      <point x="460" y="192" type="line"/>
      <point x="461" y="229" type="line"/>
    </contour>
    <contour>
      <point x="409" y="838" type="curve" smooth="yes"/>
      <point x="409" y="881"/>
      <point x="444" y="914"/>
      <point x="488" y="914" type="curve" smooth="yes"/>
      <point x="532" y="914"/>
      <point x="568" y="881"/>
      <point x="568" y="838" type="curve" smooth="yes"/>
      <point x="568" y="795"/>
      <point x="532" y="762"/>
      <point x="488" y="762" type="curve" smooth="yes"/>
      <point x="444" y="762"/>
      <point x="409" y="795"/>
    </contour>
    <contour>
      <point x="146" y="838" type="curve" smooth="yes"/>
      <point x="146" y="881"/>
      <point x="181" y="914"/>
      <point x="225" y="914" type="curve" smooth="yes"/>
      <point x="269" y="914"/>
      <point x="304" y="881"/>
      <point x="304" y="838" type="curve" smooth="yes"/>
      <point x="304" y="795"/>
      <point x="269" y="762"/>
      <point x="225" y="762" type="curve" smooth="yes"/>
      <point x="181" y="762"/>
      <point x="146" y="795"/>
    </contour>
  </outline>
</glyph>
<glyph name="Ccedilla" format="1">
  <advance width="695"/>
  <unicode hex="00C7"/>
  <outline>
    <contour>
      <point x="192" y="350" type="curve" smooth="yes"/>
      <point x="192" y="212"/>
      <point x="296" y="124"/>
      <point x="416" y="124" type="curve" smooth="yes"/>
      <point x="515" y="124"/>
      <point x="583" y="166"/>
      <point x="630" y="220" type="curve"/>
      <point x="630" y="58" type="line"/>
      <point x="573" y="12"/>
      <point x="512" y="-14"/>
      <point x="410" y="-14" type="curve" smooth="yes"/>
      <point x="194" y="-14"/>
      <point x="36" y="134"/>
      <point x="36" y="350" type="curve" smooth="yes"/>
      <point x="36" y="566"/>
      <point x="194" y="714"/>
      <point x="410" y="714" type="curve" smooth="yes"/>
      <point x="512" y="714"/>
      <point x="573" y="688"/>
      <point x="630" y="642" type="curve"/>
      <point x="630" y="480" type="line"/>
      <point x="583" y="534"/>
      <point x="515" y="576"/>
      <point x="416" y="576" type="curve" smooth="yes"/>
      <point x="296" y="576"/>
      <point x="192" y="488"/>
    </contour>
    <contour>
      <point x="376" y="59" type="line"/>
      <point x="472" y="56" type="line"/>
      <point x="378" y="-80" type="line"/>
      <point x="289" y="-127" type="line"/>
    </contour>
    <contour>
      <point x="506" y="-150" type="curve"/>
      <point x="422" y="-144" type="line"/>
      <point x="422" y="-118"/>
      <point x="396" y="-110"/>
      <point x="364" y="-110" type="curve" smooth="yes"/>
      <point x="354" y="-110"/>
      <point x="321" y="-111"/>
      <point x="289" y="-127" type="curve"/>
      <point x="346" y="-84" type="line"/>
      <point x="372" y="-62"/>
      <point x="394" y="-60"/>
      <point x="420" y="-60" type="curve" smooth="yes"/>
      <point x="458" y="-60"/>
      <point x="506" y="-89"/>
    </contour>
    <contour>
      <point x="506" y="-150" type="line"/>
      <point x="506" y="-219"/>
      <point x="442" y="-254"/>
      <point x="382" y="-254" type="curve" smooth="yes"/>
      <point x="332" y="-254"/>
      <point x="296" y="-246"/>
      <point x="254" y="-216" type="curve"/>
      <point x="296" y="-156" type="line"/>
      <point x="320" y="-174"/>
      <point x="346" y="-181"/>
      <point x="368" y="-181" type="curve" smooth="yes"/>
      <point x="402" y="-181"/>
      <point x="422" y="-168"/>
      <point x="422" y="-144" type="curve"/>
    </contour>
  </outline>
</glyph>
<glyph name="Egrave" format="1">
  <advance width="587"/>
  <unicode hex="00C8"/>
  <outline>
    <contour>
      <point x="168" y="0" type="line"/>
      <point x="168" y="122" type="line"/>
      <point x="522" y="122" type="line"/>
      <point x="522" y="0" type="line"/>
    </contour>
    <contour>
      <point x="168" y="578" type="line"/>
      <point x="168" y="700" type="line"/>
      <point x="522" y="700" type="line"/>
      <point x="522" y="578" type="line"/>
    </contour>
    <contour>
      <point x="168" y="312" type="line"/>
      <point x="168" y="431" type="line"/>
      <point x="502" y="431" type="line"/>
      <point x="502" y="312" type="line"/>
    </contour>
    <contour>
      <point x="76" y="700" type="line"/>
      <point x="216" y="700" type="line"/>
      <point x="216" y="0" type="line"/>
      <point x="76" y="0" type="line"/>
    </contour>
    <contour>
      <point x="146" y="928" type="line"/>
      <point x="250" y="978" type="line"/>
      <point x="400" y="818" type="line"/>
      <point x="326" y="778" type="line"/>
    </contour>
  </outline>
</glyph>
<glyph name="Icircumflex" format="1">
  <advance width="297"/>
  <unicode hex="00CE"/>
  <outline>
    <contour>
      <point x="76" y="700" type="line"/>
      <point x="222" y="700" type="line"/>
      <point x="222" y="0" type="line"/>
      <point x="76" y="0" type="line"/>
    </contour>
    <contour>
      <point x="144" y="878" type="line"/>
      <point x="34" y="784" type="line"/>
      <point x="-16" y="824" type="line"/>
      <point x="144" y="964" type="line"/>
      <point x="304" y="824" type="line"/>
      <point x="254" y="784" type="line"/>
    </contour>
  </outline>
</glyph>
<glyph name="Ntilde" format="1">
  <advance width="787"/>
  <unicode hex="00D1"/>
  <outline>
    <contour>
      <point x="80" y="548" type="line"/>
      <point x="76" y="735" type="line"/>
      <point x="708" y="152" type="line"/>
      <point x="712" y="-35" type="line"/>
    </contour>
    <contour>
      <point x="573" y="700" type="line"/>
      <point x="712" y="700" type="line"/>
      <point x="712" y="-35" type="line"/>
      <point x="573" y="128" type="line"/>
    </contour>
    <contour>
      <point x="76" y="735" type="line"/>
      <point x="216" y="572" type="line"/>
      <point x="216" y="0" type="line"/>
      <point x="76" y="0" type="line"/>
    </contour>
    <contour>
      <point x="225" y="826" type="line"/>
      <point x="235" y="875"/>
      <point x="284" y="908"/>
      <point x="329" y="908" type="curve" smooth="yes"/>
      <point x="394" y="908"/>
      <point x="399" y="860"/>
      <point x="453" y="860" type="curve" smooth="yes"/>
      <point x="472" y="860"/>
      <point x="489" y="876"/>
      <point x="509" y="908" type="curve"/>
      <point x="555" y="866" type="line"/>
      <point x="539" y="829"/>
      <point x="499" y="792"/>
      <point x="449" y="792" type="curve" smooth="yes"/>
      <point x="394" y="792"/>
      <point x="373" y="840"/>
      <point x="328" y="840" type="curve" smooth="yes"/>
      <point x="287" y="840"/>
      <point x="278" y="803"/>
      <point x="278" y="788" type="curve"/>
    </contour>
  </outline>
</glyph>
<glyph name="Oslash" format="1">
  <advance width="790"/>
  <unicode hex="00D8"/>
  <outline>
    <contour>
      <point x="188" y="350" type="curve" smooth="yes"/>
      <point x="188" y="214"/>
      <point x="278" y="120"/>
      <point x="406" y="120" type="curve" smooth="yes"/>
      <point x="534" y="120"/>
      <point x="624" y="214"/>
      <point x="624" y="350" type="curve" smooth="yes"/>
      <point x="624" y="486"/>
      <point x="534" y="580"/>
      <point x="406" y="580" type="curve" smooth="yes"/>
      <point x="278" y="580"/>
      <point x="188" y="486"/>
    </contour>
    <contour>
      <point x="36" y="350" type="curve" smooth="yes"/>
      <point x="36" y="562"/>
      <point x="194" y="714"/>
      <point x="406" y="714" type="curve" smooth="yes"/>
      <point x="618" y="714"/>
      <point x="776" y="562"/>
      <point x="776" y="350" type="curve" smooth="yes"/>
      <point x="776" y="138"/>
      <point x="618" y="-18"/>
      <point x="406" y="-18" type="curve" smooth="yes"/>
      <point x="194" y="-18"/>
      <point x="36" y="138"/>
    </contour>
    <contour>
      <point x="695" y="754" type="line"/>
      <point x="762" y="706" type="line"/>
      <point x="114" y="-54" type="line"/>
      <point x="47" y="-6" type="line"/>
    </contour>
  </outline>
</glyph>
<glyph name="acircumflex" format="1">
  <advance width="526"/>
  <unicode hex="00E2"/>
  <outline>
    <contour>
      <point x="156" y="137" type="curve" smooth="yes"/>
      <point x="156" y="99"/>
      <point x="185" y="80"/>
      <point x="232" y="80" type="curve" smooth="yes"/>
      <point x="294" y="80"/>
      <point x="345" y="106"/>
      <point x="345" y="184" type="curve"/>
      <point x="361" y="130" type="line"/>
      <point x="361" y="41"/>
      <point x="285" y="-10"/>
      <point x="190" y="-10" type="curve" smooth="yes"/>
      <point x="90" y="-10"/>
      <point x="26" y="41"/>
      <point x="26" y="127" type="curve" smooth="yes"/>
      <point x="26" y="225"/>
      <point x="108" y="281"/>
      <point x="224" y="281" type="curve" smooth="yes"/>
      <point x="298" y="281"/>
      <point x="360" y="248"/>
      <point x="378" y="228" type="curve"/>
      <point x="378" y="164" type="line"/>
      <point x="340" y="192"/>
      <point x="304" y="206"/>
      <point x="250" y="206" type="curve" smooth="yes"/>
      <point x="190" y="206"/>
      <point x="156" y="179"/>
    </contour>
    <contour>
      <point x="116" y="328" type="curve"/>
      <point x="68" y="418" type="line"/>
      <point x="116" y="443"/>
      <point x="185" y="472"/>
      <point x="268" y="472" type="curve" smooth="yes"/>
      <point x="386" y="472"/>
      <point x="470" y="420"/>
      <point x="470" y="326" type="curve" smooth="yes"/>
      <point x="470" y="0" type="line"/>
      <point x="345" y="0" type="line"/>
      <point x="345" y="305" type="line" smooth="yes"/>
      <point x="345" y="346"/>
      <point x="309" y="370"/>
      <point x="259" y="370" type="curve" smooth="yes"/>
      <point x="193" y="370"/>
      <point x="138" y="342"/>
    </contour>
    <contour>
      <point x="268" y="620" type="line"/>
      <point x="171" y="532" type="line"/>
      <point x="81" y="594" type="line"/>
      <point x="268" y="734" type="line"/>
      <point x="454" y="594" type="line"/>
      <point x="365" y="532" type="line"/>
    </contour>
  </outline>
</glyph>
<glyph name="ae" format="1">
  <advance width="874"/>
  <unicode hex="00E6"/>
  <outline>
    <contour>
      <point x="156" y="137" type="curve" smooth="yes"/>
      <point x="156" y="99"/>
      <point x="185" y="80"/>
      <point x="232" y="80" type="curve" smooth="yes"/>
      <point x="294" y="80"/>
      <point x="345" y="106"/>
      <point x="345" y="184" type="curve"/>
      <point x="408" y="130" type="line"/>
      <point x="408" y="41"/>
      <point x="332" y="-10"/>
      <point x="215" y="-10" type="curve" smooth="yes"/>
      <point x="95" y="-10"/>
      <point x="26" y="41"/>
      <point x="26" y="127" type="curve" smooth="yes"/>
      <point x="26" y="225"/>
      <point x="108" y="281"/>
      <point x="224" y="281" type="curve" smooth="yes"/>
      <point x="298" y="281"/>
      <point x="360" y="248"/>
      <point x="378" y="228" type="curve"/>
      <point x="378" y="164" type="line"/>
      <point x="340" y="192"/>
      <point x="304" y="206"/>
      <point x="250" y="206" type="curve" smooth="yes"/>
      <point x="190" y="206"/>
      <point x="156" y="179"/>
    </contour>
    <contour>
      <point x="116" y="328" type="curve"/>
      <point x="68" y="418" type="line"/>
      <point x="116" y="443"/>
      <point x="185" y="472"/>
      <point x="268" y="472" type="curve" smooth="yes"/>
      <point x="386" y="472"/>
      <point x="430" y="420"/>
      <point x="430" y="326" type="curve" smooth="yes"/>
      <point x="430" y="130" type="line"/>
      <point x="345" y="130" type="line"/>
      <point x="345" y="299" type="line" smooth="yes"/>
      <point x="345" y="340"/>
      <point x="309" y="370"/>
      <point x="259" y="370" type="curve" smooth="yes"/>
      <point x="193" y="370"/>
      <point x="138" y="342"/>
    </contour>
    <contour>
      <point x="414" y="202" type="line"/>
      <point x="414" y="281" type="line"/>
      <point x="822" y="281" type="line"/>
      <point x="839" y="202" type="line"/>
    </contour>
    <contour>
      <point x="703" y="246" type="line" smooth="yes"/>
      <point x="703" y="328"/>
      <point x="671" y="378"/>
      <point x="599" y="378" type="curve" smooth="yes"/>
      <point x="533" y="378"/>
      <point x="484" y="334"/>
      <point x="484" y="256" type="curve"/>
      <point x="482" y="230" type="line"/>
      <point x="482" y="132"/>
      <point x="534" y="90"/>
      <point x="602" y="90" type="curve" smooth="yes"/>
      <point x="660" y="90"/>
      <point x="700" y="113"/>
      <point x="724" y="155" type="curve"/>
      <point x="838" y="120" type="line"/>
      <point x="792" y="42"/>
      <point x="728" y="-10"/>
      <point x="600" y="-10" type="curve" smooth="yes"/>
      <point x="445" y="-10"/>
      <point x="380" y="91"/>
      <point x="380" y="230" type="curve" smooth="yes"/>
      <point x="380" y="247"/>
      <point x="385" y="263"/>
      <point x="388" y="279" type="curve" smooth="yes"/>
      <point x="407" y="392"/>
      <point x="488" y="470"/>
      <point x="620" y="470" type="curve" smooth="yes"/>
      <point x="748" y="470"/>
      <point x="840" y="381"/>
      <point x="840" y="236" type="curve" smooth="yes"/>
      <point x="840" y="228"/>
      <point x="841" y="216"/>
      <point x="839" y="202" type="curve"/>
      <point x="703" y="222" type="line"/>
    </contour>
  </outline>
</glyph>
<glyph name="ccedilla" format="1">
  <advance width="488"/>
  <unicode hex="00E7"/>
  <outline>
    <contour>
      <point x="164" y="230" type="curve" smooth="yes"/>
      <point x="164" y="150"/>
      <point x="222" y="96"/>
      <point x="296" y="96" type="curve" smooth="yes"/>
      <point x="356" y="96"/>
      <point x="413" y="126"/>
      <point x="439" y="170" type="curve"/>
      <point x="439" y="37" type="line"/>
      <point x="407" y="7"/>
      <point x="356" y="-10"/>
      <point x="288" y="-10" type="curve" smooth="yes"/>
      <point x="140" y="-10"/>
      <point x="30" y="86"/>
      <point x="30" y="230" type="curve" smooth="yes"/>
      <point x="30" y="374"/>
      <point x="140" y="470"/>
      <point x="288" y="470" type="curve" smooth="yes"/>
      <point x="356" y="470"/>
      <point x="407" y="450"/>
      <point x="439" y="424" type="curve"/>
      <point x="439" y="290" type="line"/>
      <point x="413" y="334"/>
      <point x="352" y="364"/>
      <point x="296" y="364" type="curve" smooth="yes"/>
      <point x="222" y="364"/>
      <point x="164" y="306"/>
    </contour>
    <contour>
      <point x="245" y="76" type="line"/>
      <point x="340" y="74" type="line"/>
      <point x="248" y="-62" type="line"/>
      <point x="158" y="-110" type="line"/>
    </contour>
    <contour>
      <point x="375" y="-132" type="curve"/>
      <point x="290" y="-127" type="line"/>
      <point x="290" y="-101"/>
      <point x="265" y="-94"/>
      <point x="233" y="-94" type="curve" smooth="yes"/>
      <point x="223" y="-94"/>
      <point x="190" y="-94"/>
      <point x="158" y="-110" type="curve"/>
      <point x="215" y="-68" type="line"/>
      <point x="241" y="-46"/>
      <point x="264" y="-42"/>
      <point x="290" y="-42" type="curve" smooth="yes"/>
      <point x="328" y="-42"/>
      <point x="375" y="-71"/>
    </contour>
    <contour>
      <point x="375" y="-132" type="line"/>
      <point x="375" y="-201"/>
      <point x="312" y="-238"/>
      <point x="252" y="-238" type="curve" smooth="yes"/>
      <point x="202" y="-238"/>
      <point x="166" y="-228"/>
      <point x="124" y="-198" type="curve"/>
      <point x="166" y="-138" type="line"/>
      <point x="190" y="-156"/>
      <point x="216" y="-164"/>
      <point x="238" y="-164" type="curve" smooth="yes"/>
      <point x="272" y="-164"/>
      <point x="290" y="-151"/>
      <point x="290" y="-127" type="curve"/>
    </contour>
  </outline>
</glyph>
<glyph name="edieresis" format="1">
  <advance width="548"/>
  <unicode hex="00EB"/>
  <outline>
    <contour>
      <point x="96" y="202" type="line"/>
      <point x="96" y="284" type="line"/>
      <point x="492" y="284" type="line"/>
      <point x="510" y="202" type="line"/>
    </contour>
    <contour>
      <point x="392" y="246" type="line" smooth="yes"/>
      <point x="392" y="324"/>
      <point x="356" y="372"/>
      <point x="280" y="372" type="curve" smooth="yes"/>
      <point x="210" y="372"/>
      <point x="160" y="330"/>
      <point x="160" y="256" type="curve"/>
      <point x="158" y="230" type="line"/>
      <point x="158" y="140"/>
      <point x="214" y="93"/>
      <point x="290" y="93" type="curve" smooth="yes"/>
      <point x="341" y="93"/>
      <point x="374" y="114"/>
      <point x="395" y="155" type="curve"/>
      <point x="503" y="114" type="line"/>
      <point x="464" y="42"/>
      <point x="403" y="-10"/>
      <point x="282" y="-10" type="curve" smooth="yes"/>
      <point x="141" y="-10"/>
      <point x="36" y="91"/>
      <point x="36" y="230" type="curve" smooth="yes"/>
      <point x="36" y="247"/>
      <point x="38" y="264"/>
      <point x="41" y="280" type="curve" smooth="yes"/>
      <point x="60" y="393"/>
      <point x="156" y="470"/>
      <point x="282" y="470" type="curve" smooth="yes"/>
      <point x="412" y="470"/>
      <point x="512" y="381"/>
      <point x="512" y="236" type="curve" smooth="yes"/>
      <point x="512" y="228"/>
      <point x="512" y="216"/>
      <point x="510" y="202" type="curve"/>
      <point x="392" y="222" type="line"/>
    </contour>
    <contour>
      <point x="320" y="604" type="curve" smooth="yes"/>
      <point x="320" y="646"/>
      <point x="354" y="678"/>
      <point x="398" y="678" type="curve" smooth="yes"/>
      <point x="442" y="678"/>
      <point x="476" y="646"/>
      <point x="476" y="604" type="curve" smooth="yes"/>
      <point x="476" y="562"/>
      <point x="442" y="530"/>
      <point x="398" y="530" type="curve" smooth="yes"/>
      <point x="354" y="530"/>
      <point x="320" y="562"/>
    </contour>
    <contour>
      <point x="89" y="604" type="curve" smooth="yes"/>
      <point x="89" y="646"/>
      <point x="123" y="678"/>
      <point x="167" y="678" type="curve" smooth="yes"/>
      <point x="211" y="678"/>
      <point x="246" y="646"/>
      <point x="246" y="604" type="curve" smooth="yes"/>
      <point x="246" y="562"/>
      <point x="211" y="530"/>
      <point x="167" y="530" type="curve" smooth="yes"/>
      <point x="123" y="530"/>
      <point x="89" y="562"/>
    </contour>
  </outline>
</glyph>
<glyph name="eth" format="1">
  <advance width="641"/>
  <unicode hex="00F0"/>
  <outline>
    <contour>
      <point x="450" y="241" type="curve" smooth="yes"/>
      <point x="450" y="319"/>
      <point x="395" y="374"/>
      <point x="321" y="374" type="curve" smooth="yes"/>
      <point x="247" y="374"/>
      <point x="192" y="319"/>
      <point x="192" y="241" type="curve" smooth="yes"/>
      <point x="192" y="163"/>
      <point x="247" y="110"/>
      <point x="321" y="110" type="curve" smooth="yes"/>
      <point x="395" y="110"/>
      <point x="450" y="163"/>
    </contour>
    <contour>
      <point x="309" y="698" type="line"/>
      <point x="521" y="420" type="line" smooth="yes"/>
      <point x="561" y="370"/>
      <point x="592" y="311"/>
      <point x="592" y="241" type="curve" smooth="yes"/>
      <point x="592" y="77"/>
      <point x="471" y="-14"/>
      <point x="321" y="-14" type="curve" smooth="yes"/>
      <point x="171" y="-14"/>
      <point x="50" y="77"/>
      <point x="50" y="241" type="curve" smooth="yes"/>
      <point x="50" y="379"/>
      <point x="157" y="469"/>
      <point x="264" y="469" type="curve" smooth="yes"/>
      <point x="312" y="469"/>
      <point x="344" y="460"/>
      <point x="378" y="425" type="curve"/>
      <point x="351" y="434" type="line"/>
      <point x="127" y="698" type="line"/>
    </contour>
    <contour>
      <point x="142" y="520" type="line"/>
      <point x="142" y="594" type="line"/>
      <point x="538" y="594" type="line"/>
      <point x="538" y="520" type="line"/>
    </contour>
  </outline>
</glyph>
<glyph name="odieresis" format="1">
  <advance width="576"/>
  <unicode hex="00F6"/>
  <outline>
    <contour>
      <point x="33" y="230" type="curve" smooth="yes"/>
      <point x="33" y="374"/>
      <point x="142" y="470"/>
      <point x="288" y="470" type="curve" smooth="yes"/>
      <point x="434" y="470"/>
      <point x="544" y="374"/>
      <point x="544" y="230" type="curve" smooth="yes"/>
      <point x="544" y="86"/>
      <point x="434" y="-10"/>
      <point x="288" y="-10" type="curve" smooth="yes"/>
      <point x="142" y="-10"/>
      <point x="33" y="86"/>
    </contour>
    <contour>
      <point x="166" y="230" type="curve" smooth="yes"/>
      <point x="166" y="152"/>
      <point x="220" y="100"/>
      <point x="288" y="100" type="curve" smooth="yes"/>
      <point x="356" y="100"/>
      <point x="410" y="152"/>
      <point x="410" y="230" type="curve" smooth="yes"/>
      <point x="410" y="308"/>
      <point x="356" y="360"/>
      <point x="288" y="360" type="curve" smooth="yes"/>
      <point x="220" y="360"/>
      <point x="166" y="308"/>
    </contour>
    <contour>
      <point x="326" y="613" type="curve" smooth="yes"/>
      <point x="326" y="655"/>
      <point x="360" y="687"/>
      <point x="404" y="687" type="curve" smooth="yes"/>
      <point x="448" y="687"/>
      <point x="482" y="655"/>
      <point x="482" y="613" type="curve" smooth="yes"/>
      <point x="482" y="571"/>
      <point x="448" y="539"/>
      <point x="404" y="539" type="curve" smooth="yes"/>
      <point x="360" y="539"/>
      <point x="326" y="571"/>
    </contour>
    <contour>
      <point x="95" y="613" type="curve" smooth="yes"/>
      <point x="95" y="655"/>
      <point x="129" y="687"/>
      <point x="173" y="687" type="curve" smooth="yes"/>
      <point x="217" y="687"/>
      <point x="251" y="655"/>
      <point x="251" y="613" type="curve" smooth="yes"/>
      <point x="251" y="571"/>
      <point x="217" y="539"/>
      <point x="173" y="539" type="curve" smooth="yes"/>
      <point x="129" y="539"/>
      <point x="95" y="571"/>
    </contour>
  </outline>
</glyph>
<glyph name="divide" format="1">
  <advance width="634"/>
  <unicode hex="00F7"/>
  <outline>
    <contour>
      <point x="234" y="522" type="curve" smooth="yes"/>
      <point x="234" y="566"/>
      <point x="269" y="604"/>
      <point x="317" y="604" type="curve" smooth="yes"/>
      <point x="365" y="604"/>
      <point x="399" y="566"/>
      <point x="399" y="522" type="curve" smooth="yes"/>
      <point x="399" y="478"/>
      <point x="365" y="440"/>
      <point x="317" y="440" type="curve" smooth="yes"/>
      <point x="269" y="440"/>
      <point x="234" y="478"/>
    </contour>
    <contour>
      <point x="234" y="90" type="curve" smooth="yes"/>
      <point x="234" y="134"/>
      <point x="269" y="170"/>
      <point x="317" y="170" type="curve" smooth="yes"/>
      <point x="365" y="170"/>
      <point x="399" y="134"/>
      <point x="399" y="90" type="curve" smooth="yes"/>
      <point x="399" y="46"/>
      <point x="365" y="8"/>
      <point x="317" y="8" type="curve" smooth="yes"/>
      <point x="269" y="8"/>
      <point x="234" y="46"/>
    </contour>
    <contour>
      <point x="36" y="250" type="line"/>
      <point x="36" y="368" type="line"/>
      <point x="597" y="368" type="line"/>
      <point x="597" y="250" type="line"/>
    </contour>
  </outline>
</glyph>
<glyph name="ugrave" format="1">
  <advance width="560"/>
  <unicode hex="00F9"/>
  <outline>
    <contour>
      <point x="366" y="0" type="line"/>
      <point x="366" y="460" type="line"/>
      <point x="496" y="460" type="line"/>
      <point x="496" y="0" type="line"/>
    </contour>
    <contour>
      <point x="199" y="180" type="line" smooth="yes"/>
      <point x="199" y="120"/>
      <point x="221" y="86"/>
      <point x="275" y="86" type="curve" smooth="yes"/>
      <point x="329" y="86"/>
      <point x="366" y="122"/>
      <point x="366" y="180" type="curve"/>
      <point x="398" y="184" type="line"/>
      <point x="398" y="75"/>
      <point x="334" y="-10"/>
      <point x="226" y="-10" type="curve" smooth="yes"/>
      <point x="118" y="-10"/>
      <point x="64" y="52"/>
      <point x="64" y="166" type="curve" smooth="yes"/>
      <point x="64" y="460" type="line"/>
      <point x="199" y="460" type="line"/>
    </contour>
    <contour>
      <point x="142" y="692" type="line"/>
      <point x="246" y="740" type="line"/>
      <point x="396" y="580" type="line"/>
      <point x="322" y="542" type="line"/>
    </contour>
  </outline>
</glyph>
<glyph name="udieresis" format="1">
  <advance width="560"/>
  <unicode hex="00FC"/>
  <outline>
    <contour>
      <point x="366" y="0" type="line"/>
      <point x="366" y="460" type="line"/>
      <point x="496" y="460" type="line"/>
      <point x="496" y="0" type="line"/>
    </contour>
    <contour>
      <point x="199" y="180" type="line" smooth="yes"/>
      <point x="199" y="120"/>
      <point x="220" y="86"/>
      <point x="274" y="86" type="curve" smooth="yes"/>
      <point x="328" y="86"/>
      <point x="366" y="122"/>
      <point x="366" y="180" type="curve"/>
      <point x="395" y="184" type="line"/>
      <point x="395" y="75"/>
      <point x="334" y="-10"/>
      <point x="226" y="-10" type="curve" smooth="yes"/>
      <point x="118" y="-10"/>
      <point x="64" y="52"/>
      <point x="64" y="166" type="curve" smooth="yes"/>
      <point x="64" y="460" type="line"/>
      <point x="199" y="460" type="line"/>
    </contour>
    <contour>
      <point x="318" y="610" type="curve" smooth="yes"/>
      <point x="318" y="652"/>
      <point x="352" y="684"/>
      <point x="396" y="684" type="curve" smooth="yes"/>
      <point x="440" y="684"/>
      <point x="474" y="652"/>
      <point x="474" y="610" type="curve" smooth="yes"/>
      <point x="474" y="568"/>
      <point x="440" y="536"/>
      <point x="396" y="536" type="curve" smooth="yes"/>
      <point x="352" y="536"/>
      <point x="318" y="568"/>
    </contour>
    <contour>
      <point x="87" y="610" type="curve" smooth="yes"/>
      <point x="87" y="652"/>
      <point x="121" y="684"/>
      <point x="165" y="684" type="curve" smooth="yes"/>
      <point x="209" y="684"/>
      <point x="243" y="652"/>
      <point x="243" y="610" type="curve" smooth="yes"/>
      <point x="243" y="568"/>
      <point x="209" y="536"/>
      <point x="165" y="536" type="curve" smooth="yes"/>
      <point x="121" y="536"/>
      <point x="87" y="568"/>
    </contour>
  </outline>
</glyph>
<glyph name="aogonek" format="1">
  <advance width="526"/>
  <unicode hex="0105"/>
  <outline>
    <contour>
      <point x="156" y="137" type="curve" smooth="yes"/>
      <point x="156" y="99"/>
      <point x="185" y="80"/>
      <point x="232" y="80" type="curve" smooth="yes"/>
      <point x="294" y="80"/>
      <point x="345" y="106"/>
      <point x="345" y="184" type="curve"/>
      <point x="361" y="130" type="line"/>
      <point x="361" y="41"/>
      <point x="285" y="-10"/>
      <point x="190" y="-10" type="curve" smooth="yes"/>
      <point x="90" y="-10"/>
      <point x="26" y="41"/>
      <point x="26" y="127" type="curve" smooth="yes"/>
      <point x="26" y="225"/>
      <point x="108" y="281"/>
      <point x="224" y="281" type="curve" smooth="yes"/>
      <point x="298" y="281"/>
      <point x="360" y="248"/>
      <point x="378" y="228" type="curve"/>
      <point x="378" y="164" type="line"/>
      <point x="340" y="192"/>
      <point x="304" y="206"/>
      <point x="250" y="206" type="curve" smooth="yes"/>
      <point x="190" y="206"/>
      <point x="156" y="179"/>
    </contour>
    <contour>
      <point x="116" y="328" type="curve"/>
      <point x="68" y="418" type="line"/>
      <point x="116" y="443"/>
      <point x="185" y="472"/>
      <point x="268" y="472" type="curve" smooth="yes"/>
      <point x="386" y="472"/>
      <point x="470" y="420"/>
      <point x="470" y="326" type="curve" smooth="yes"/>
      <point x="470" y="0" type="line"/>
      <point x="345" y="0" type="line"/>
      <point x="345" y="305" type="line" smooth="yes"/>
      <point x="345" y="346"/>
      <point x="309" y="370"/>
      <point x="259" y="370" type="curve" smooth="yes"/>
      <point x="193" y="370"/>
      <point x="138" y="342"/>
    </contour>
    <contour>
      <point x="460" y="-116" type="curve"/>
      <point x="493" y="-178" type="line"/>
      <point x="478" y="-198"/>
      <point x="448" y="-218"/>
      <point x="396" y="-218" type="curve" smooth="yes"/>
      <point x="326" y="-218"/>
      <point x="278" y="-182"/>
      <point x="278" y="-118" type="curve"/>
      <point x="371" y="-94" type="line"/>
      <point x="371" y="-122"/>
      <point x="384" y="-136"/>
      <point x="410" y="-136" type="curve" smooth="yes"/>
      <point x="432" y="-136"/>
      <point x="446" y="-129"/>
    </contour>
    <contour>
      <point x="371" y="-94" type="curve"/>
      <point x="278" y="-118" type="line"/>
      <point x="278" y="-54"/>
      <point x="344" y="-10"/>
      <point x="414" y="26" type="curve"/>
      <point x="455" y="2" type="line"/>
      <point x="403" y="-24"/>
      <point x="371" y="-62"/>
    </contour>
  </outline>
</glyph>
<glyph name="edotaccent" format="1">
  <advance width="550"/>
  <unicode hex="0117"/>
  <outline>
    <contour>
      <point x="96" y="202" type="line"/>
      <point x="96" y="284" type="line"/>
      <point x="496" y="284" type="line"/>
      <point x="512" y="202" type="line"/>
    </contour>
    <contour>
      <point x="390" y="246" type="line" smooth="yes"/>
      <point x="390" y="325"/>
      <point x="355" y="374"/>
      <point x="280" y="374" type="curve" smooth="yes"/>
      <point x="211" y="374"/>
      <point x="162" y="330"/>
      <point x="162" y="256" type="curve"/>
      <point x="160" y="230" type="line"/>
      <point x="160" y="138"/>
      <point x="214" y="92"/>
      <point x="288" y="92" type="curve" smooth="yes"/>
      <point x="341" y="92"/>
      <point x="376" y="114"/>
      <point x="398" y="155" type="curve"/>
      <point x="508" y="115" type="line"/>
      <point x="467" y="41"/>
      <point x="405" y="-10"/>
      <point x="282" y="-10" type="curve" smooth="yes"/>
      <point x="137" y="-10"/>
      <point x="36" y="91"/>
      <point x="36" y="230" type="curve" smooth="yes"/>
      <point x="36" y="247"/>
      <point x="37" y="264"/>
      <point x="40" y="280" type="curve" smooth="yes"/>
      <point x="59" y="393"/>
      <point x="151" y="470"/>
      <point x="282" y="470" type="curve" smooth="yes"/>
      <point x="418" y="470"/>
      <point x="514" y="381"/>
      <point x="514" y="236" type="curve" smooth="yes"/>
      <point x="514" y="228"/>
      <point x="514" y="216"/>
      <point x="512" y="202" type="curve"/>
      <point x="390" y="222" type="line"/>
    </contour>
    <contour>
      <point x="204" y="606" type="curve" smooth="yes"/>
      <point x="204" y="649"/>
      <point x="238" y="682"/>
      <point x="282" y="682" type="curve" smooth="yes"/>
      <point x="326" y="682"/>
      <point x="362" y="649"/>
      <point x="362" y="606" type="curve" smooth="yes"/>
      <point x="362" y="563"/>
      <point x="326" y="530"/>
      <point x="282" y="530" type="curve" smooth="yes"/>
      <point x="238" y="530"/>
      <point x="204" y="563"/>
    </contour>
  </outline>
</glyph>
<glyph name="uni0122" format="1">
  <advance width="802"/>
  <unicode hex="0122"/>
  <outline>
    <contour>
      <point x="416" y="260" type="line"/>
      <point x="416" y="374" type="line"/>
      <point x="762" y="374" type="line"/>
      <point x="682" y="260" type="line"/>
    </contour>
    <contour>
      <point x="762" y="374" type="line"/>
      <point x="770" y="160"/>
      <point x="642" y="-18"/>
      <point x="410" y="-18" type="curve" smooth="yes"/>
      <point x="192" y="-18"/>
      <point x="36" y="132"/>
      <point x="36" y="350" type="curve" smooth="yes"/>
      <point x="36" y="568"/>
      <point x="196" y="714"/>
      <point x="414" y="714" type="curve" smooth="yes"/>
      <point x="556" y="714"/>
      <point x="659" y="651"/>
      <point x="723" y="554" type="curve"/>
      <point x="600" y="482" type="line"/>
      <point x="564" y="542"/>
      <point x="504" y="585"/>
      <point x="414" y="585" type="curve" smooth="yes"/>
      <point x="288" y="585"/>
      <point x="186" y="496"/>
      <point x="186" y="350" type="curve" smooth="yes"/>
      <point x="186" y="204"/>
      <point x="284" y="110"/>
      <point x="414" y="110" type="curve" smooth="yes"/>
      <point x="574" y="110"/>
      <point x="630" y="234"/>
      <point x="630" y="370" type="curve"/>
    </contour>
    <contour>
      <point x="368" y="-78" type="line"/>
      <point x="498" y="-110" type="line"/>
      <point x="376" y="-360" type="line"/>
      <point x="280" y="-338" type="line"/>
    </contour>
  </outline>
</glyph>
<glyph name="itilde" format="1">
  <advance width="271"/>
  <unicode hex="0129"/>
  <outline>
    <contour>
      <point x="72" y="460" type="line"/>
      <point x="198" y="460" type="line"/>
      <point x="198" y="0" type="line"/>
      <point x="72" y="0" type="line"/>
    </contour>
    <contour>
      <point x="-51" y="588" type="line"/>
      <point x="-41" y="637"/>
      <point x="6" y="678"/>
      <point x="64" y="678" type="curve" smooth="yes"/>
      <point x="130" y="678"/>
      <point x="140" y="628"/>
      <point x="196" y="628" type="curve" smooth="yes"/>
      <point x="220" y="628"/>
      <point x="240" y="648"/>
      <point x="260" y="680" type="curve"/>
      <point x="322" y="614" type="line"/>
      <point x="306" y="577"/>
      <point x="254" y="532"/>
      <point x="196" y="532" type="curve" smooth="yes"/>
      <point x="141" y="532"/>
      <point x="110" y="584"/>
      <point x="62" y="584" type="curve" smooth="yes"/>
      <point x="23" y="584"/>
      <point x="14" y="548"/>
      <point x="14" y="533" type="curve"/>
    </contour>
  </outline>
</glyph>
<glyph name="Imacron" format="1">
  <advance width="297"/>
  <unicode hex="012A"/>
  <outline>
    <contour>
      <point x="76" y="700" type="line"/>
      <point x="222" y="700" type="line"/>
      <point x="222" y="0" type="line"/>
      <point x="76" y="0" type="line"/>
    </contour>
    <contour>
      <point x="-34" y="774" type="line"/>
      <point x="-34" y="889" type="line"/>
      <point x="332" y="889" type="line"/>
      <point x="332" y="774" type="line"/>
    </contour>
  </outline>
</glyph>
<glyph name="ibreve" format="1">
  <advance width="271"/>
  <unicode hex="012D"/>
  <outline>
    <contour>
      <point x="72" y="460" type="line"/>
      <point x="198" y="460" type="line"/>
      <point x="198" y="0" type="line"/>
      <point x="72" y="0" type="line"/>
    </contour>
    <contour>
      <point x="-28" y="675" type="curve"/>
      <point x="64" y="675" type="line"/>
      <point x="64" y="642"/>
      <point x="88" y="611"/>
      <point x="136" y="611" type="curve" smooth="yes"/>
      <point x="184" y="611"/>
      <point x="206" y="642"/>
      <point x="206" y="675" type="curve"/>
      <point x="298" y="675" type="line"/>
      <point x="298" y="597"/>
      <point x="241" y="530"/>
      <point x="136" y="530" type="curve" smooth="yes"/>
      <point x="31" y="530"/>
      <point x="-28" y="597"/>
    </contour>
  </outline>
</glyph>
<glyph name="iogonek" format="1">
  <advance width="271"/>
  <unicode hex="012F"/>
  <outline>
    <contour>
      <point x="58" y="638" type="curve" smooth="yes"/>
      <point x="58" y="680"/>
      <point x="92" y="712"/>
      <point x="136" y="712" type="curve" smooth="yes"/>
      <point x="180" y="712"/>
      <point x="214" y="680"/>
      <point x="214" y="638" type="curve" smooth="yes"/>
      <point x="214" y="596"/>
      <point x="180" y="564"/>
      <point x="136" y="564" type="curve" smooth="yes"/>
      <point x="92" y="564"/>
      <point x="58" y="596"/>
    </contour>
    <contour>
      <point x="72" y="460" type="line"/>
      <point x="198" y="460" type="line"/>
      <point x="198" y="0" type="line"/>
      <point x="72" y="0" type="line"/>
    </contour>
    <contour>
      <point x="194" y="-125" type="curve"/>
      <point x="228" y="-188" type="line"/>
      <point x="213" y="-208"/>
      <point x="184" y="-228"/>
      <point x="132" y="-228" type="curve" smooth="yes"/>
      <point x="62" y="-228"/>
      <point x="12" y="-192"/>
      <point x="12" y="-128" type="curve"/>
      <point x="106" y="-104" type="line"/>
      <point x="106" y="-132"/>
      <point x="118" y="-145"/>
      <point x="144" y="-145" type="curve" smooth="yes"/>
      <point x="166" y="-145"/>
      <point x="180" y="-138"/>
    </contour>
    <contour>
      <point x="106" y="-104" type="curve"/>
      <point x="12" y="-128" type="line"/>
      <point x="12" y="-64"/>
      <point x="78" y="-20"/>
      <point x="148" y="16" type="curve"/>
      <point x="190" y="-8" type="line"/>
      <point x="138" y="-34"/>
      <point x="106" y="-72"/>
    </contour>
  </outline>
</glyph>
<glyph name="uni0146" format="1">
  <advance width="560"/>
  <unicode hex="0146"/>
  <outline>
    <contour>
      <point x="195" y="460" type="line"/>
      <point x="195" y="0" type="line"/>
      <point x="64" y="0" type="line"/>
      <point x="64" y="460" type="line"/>
    </contour>
    <contour>
      <point x="362" y="280" type="line" smooth="yes"/>
      <point x="362" y="340"/>
      <point x="340" y="374"/>
      <point x="286" y="374" type="curve" smooth="yes"/>
      <point x="232" y="374"/>
      <point x="195" y="338"/>
      <point x="195" y="280" type="curve"/>
      <point x="163" y="276" type="line"/>
      <point x="163" y="385"/>
      <point x="226" y="470"/>
      <point x="334" y="470" type="curve" smooth="yes"/>
      <point x="442" y="470"/>
      <point x="496" y="408"/>
      <point x="496" y="294" type="curve" smooth="yes"/>
      <point x="496" y="0" type="line"/>
      <point x="362" y="0" type="line"/>
    </contour>
    <contour>
      <point x="259" y="-60" type="line"/>
      <point x="388" y="-92" type="line"/>
      <point x="268" y="-342" type="line"/>
      <point x="171" y="-319" type="line"/>
    </contour>
  </outline>
</glyph>
<glyph name="napostrophe" format="1">
  <advance width="713"/>
  <unicode hex="0149"/>
  <outline>
    <contour>
      <point x="348" y="460" type="line"/>
      <point x="348" y="0" type="line"/>
      <point x="218" y="0" type="line"/>
      <point x="218" y="460" type="line"/>
    </contour>
    <contour>
      <point x="515" y="280" type="line" smooth="yes"/>
      <point x="515" y="340"/>
      <point x="492" y="374"/>
      <point x="438" y="374" type="curve" smooth="yes"/>
      <point x="384" y="374"/>
      <point x="348" y="338"/>
      <point x="348" y="280" type="curve"/>
      <point x="316" y="276" type="line"/>
      <point x="316" y="385"/>
      <point x="380" y="470"/>
      <point x="488" y="470" type="curve" smooth="yes"/>
      <point x="596" y="470"/>
      <point x="650" y="408"/>
      <point x="650" y="294" type="curve" smooth="yes"/>
      <point x="650" y="0" type="line"/>
      <point x="515" y="0" type="line"/>
    </contour>
    <contour>
      <point x="116" y="700" type="line"/>
      <point x="255" y="700" type="line"/>
      <point x="154" y="452" type="line"/>
      <point x="62" y="452" type="line"/>
    </contour>
  </outline>
</glyph>
<glyph name="obreve" format="1">
  <advance width="576"/>
  <unicode hex="014F"/>
  <outline>
    <contour>
      <point x="33" y="230" type="curve" smooth="yes"/>
      <point x="33" y="374"/>
      <point x="142" y="470"/>
      <point x="288" y="470" type="curve" smooth="yes"/>
      <point x="434" y="470"/>
      <point x="544" y="374"/>
      <point x="544" y="230" type="curve" smooth="yes"/>
      <point x="544" y="86"/>
      <point x="434" y="-10"/>
      <point x="288" y="-10" type="curve" smooth="yes"/>
      <point x="142" y="-10"/>
      <point x="33" y="86"/>
    </contour>
    <contour>
      <point x="166" y="230" type="curve" smooth="yes"/>
      <point x="166" y="152"/>
      <point x="220" y="100"/>
      <point x="288" y="100" type="curve" smooth="yes"/>
      <point x="356" y="100"/>
      <point x="410" y="152"/>
      <point x="410" y="230" type="curve" smooth="yes"/>
      <point x="410" y="308"/>
      <point x="356" y="360"/>
      <point x="288" y="360" type="curve" smooth="yes"/>
      <point x="220" y="360"/>
      <point x="166" y="308"/>
    </contour>
    <contour>
      <point x="126" y="675" type="curve"/>
      <point x="217" y="675" type="line"/>
      <point x="217" y="642"/>
      <point x="240" y="611"/>
      <point x="288" y="611" type="curve" smooth="yes"/>
      <point x="336" y="611"/>
      <point x="360" y="642"/>
      <point x="360" y="675" type="curve"/>
      <point x="450" y="675" type="line"/>
      <point x="450" y="597"/>
      <point x="393" y="530"/>
      <point x="288" y="530" type="curve" smooth="yes"/>
      <point x="183" y="530"/>
      <point x="126" y="597"/>
    </contour>
  </outline>
</glyph>
<glyph name="racute" format="1">
  <advance width="390"/>
  <unicode hex="0155"/>
  <outline>
    <contour>
      <point x="192" y="460" type="line"/>
      <point x="192" y="0" type="line"/>
      <point x="64" y="0" type="line"/>
      <point x="64" y="460" type="line"/>
    </contour>
    <contour>
      <point x="327" y="324" type="line"/>
      <point x="309" y="340"/>
      <point x="293" y="350"/>
      <point x="267" y="350" type="curve" smooth="yes"/>
      <point x="218" y="350"/>
      <point x="192" y="309"/>
      <point x="192" y="243" type="curve"/>
      <point x="156" y="280" type="line"/>
      <point x="156" y="389"/>
      <point x="228" y="470"/>
      <point x="302" y="470" type="curve" smooth="yes"/>
      <point x="335" y="470"/>
      <point x="368" y="458"/>
      <point x="386" y="434" type="curve"/>
    </contour>
    <contour>
      <point x="376" y="680" type="line"/>
      <point x="196" y="530" type="line"/>
      <point x="124" y="570" type="line"/>
      <point x="274" y="730" type="line"/>
    </contour>
  </outline>
</glyph>
<glyph name="Scedilla" format="1">
  <advance width="602"/>
  <unicode hex="015E"/>
  <outline>
    <contour>
      <point x="140" y="244" type="line"/>
      <point x="186" y="156"/>
      <point x="236" y="108"/>
      <point x="314" y="108" type="curve" smooth="yes"/>
      <point x="376" y="108"/>
      <point x="410" y="138"/>
      <point x="410" y="190" type="curve" smooth="yes"/>
      <point x="410" y="258"/>
      <point x="340" y="282"/>
      <point x="260" y="313" type="curve" smooth="yes"/>
      <point x="190" y="339"/>
      <point x="74" y="393"/>
      <point x="74" y="524" type="curve" smooth="yes"/>
      <point x="74" y="638"/>
      <point x="172" y="714"/>
      <point x="308" y="714" type="curve" smooth="yes"/>
      <point x="447" y="714"/>
      <point x="524" y="633"/>
      <point x="552" y="562" type="curve"/>
      <point x="442" y="496" type="line"/>
      <point x="412" y="550"/>
      <point x="375" y="589"/>
      <point x="314" y="589" type="curve" smooth="yes"/>
      <point x="258" y="589"/>
      <point x="223" y="562"/>
      <point x="223" y="518" type="curve" smooth="yes"/>
      <point x="223" y="464"/>
      <point x="300" y="438"/>
      <point x="384" y="408" type="curve" smooth="yes"/>
      <point x="474" y="376"/>
      <point x="561" y="316"/>
      <point x="561" y="194" type="curve" smooth="yes"/>
      <point x="561" y="59"/>
      <point x="466" y="-18"/>
      <point x="310" y="-18" type="curve" smooth="yes"/>
      <point x="186" y="-18"/>
      <point x="80" y="57"/>
      <point x="36" y="172" type="curve"/>
    </contour>
    <contour>
      <point x="294" y="60" type="line"/>
      <point x="388" y="58" type="line"/>
      <point x="296" y="-80" type="line"/>
      <point x="207" y="-126" type="line"/>
    </contour>
    <contour>
      <point x="424" y="-150" type="curve"/>
      <point x="339" y="-143" type="line"/>
      <point x="339" y="-117"/>
      <point x="314" y="-110"/>
      <point x="282" y="-110" type="curve" smooth="yes"/>
      <point x="272" y="-110"/>
      <point x="239" y="-110"/>
      <point x="207" y="-126" type="curve"/>
      <point x="264" y="-84" type="line"/>
      <point x="290" y="-62"/>
      <point x="312" y="-58"/>
      <point x="338" y="-58" type="curve" smooth="yes"/>
      <point x="376" y="-58"/>
      <point x="424" y="-89"/>
    </contour>
    <contour>
      <point x="424" y="-150" type="line"/>
      <point x="424" y="-219"/>
      <point x="360" y="-254"/>
      <point x="300" y="-254" type="curve" smooth="yes"/>
      <point x="250" y="-254"/>
      <point x="214" y="-244"/>
      <point x="172" y="-214" type="curve"/>
      <point x="214" y="-155" type="line"/>
      <point x="238" y="-173"/>
      <point x="264" y="-180"/>
      <point x="286" y="-180" type="curve" smooth="yes"/>
      <point x="320" y="-180"/>
      <point x="339" y="-167"/>
      <point x="339" y="-143" type="curve"/>
    </contour>
  </outline>
</glyph>
<glyph name="Zacute" format="1">
  <advance width="597"/>
  <unicode hex="0179"/>
  <outline>
    <contour>
      <point x="50" y="570" type="line"/>
      <point x="50" y="700" type="line"/>
      <point x="582" y="700" type="line"/>
      <point x="238" y="126" type="line"/>
      <point x="550" y="126" type="line"/>
      <point x="550" y="0" type="line"/>
      <point x="10" y="0" type="line"/>
      <point x="352" y="570" type="line"/>
    </contour>
    <contour>
      <point x="476" y="924" type="line"/>
      <point x="296" y="774" type="line"/>
      <point x="222" y="812" type="line"/>
      <point x="372" y="972" type="line"/>
    </contour>
  </outline>
</glyph>
<glyph name="zdotaccent" format="1">
  <advance width="503"/>
  <unicode hex="017C"/>
  <outline>
    <contour>
      <point x="269" y="341" type="line"/>
      <point x="54" y="341" type="line"/>
      <point x="54" y="460" type="line"/>
      <point x="489" y="460" type="line"/>
      <point x="242" y="119" type="line"/>
      <point x="460" y="119" type="line"/>
      <point x="460" y="0" type="line"/>
      <point x="15" y="0" type="line"/>
    </contour>
    <contour>
      <point x="193.5" y="624" type="curve" smooth="yes"/>
      <point x="193.5" y="666"/>
      <point x="227.5" y="698"/>
      <point x="271.5" y="698" type="curve" smooth="yes"/>
      <point x="315.5" y="698"/>
      <point x="349.5" y="666"/>
      <point x="349.5" y="624" type="curve" smooth="yes"/>
      <point x="349.5" y="582"/>
      <point x="315.5" y="550"/>
      <point x="271.5" y="550" type="curve" smooth="yes"/>
      <point x="227.5" y="550"/>
      <point x="193.5" y="582"/>
    </contour>
  </outline>
</glyph>
<glyph name="tilde" format="1">
  <advance width="530"/>
  <unicode hex="02DC"/>
  <outline>
    <contour>
      <point x="82" y="634" type="line"/>
      <point x="92" y="683"/>
      <point x="139" y="724"/>
      <point x="197" y="724" type="curve" smooth="yes"/>
      <point x="263" y="724"/>
      <point x="274" y="674"/>
      <point x="330" y="674" type="curve" smooth="yes"/>
      <point x="354" y="674"/>
      <point x="372" y="694"/>
      <point x="392" y="726" type="curve"/>
      <point x="456" y="660" type="line"/>
      <point x="440" y="623"/>
      <point x="389" y="578"/>
      <point x="331" y="578" type="curve" smooth="yes"/>
      <point x="276" y="578"/>
      <point x="244" y="630"/>
      <point x="196" y="630" type="curve" smooth="yes"/>
      <point x="157" y="630"/>
      <point x="148" y="595"/>
      <point x="148" y="580" type="curve"/>
    </contour>
  </outline>
</glyph>
<glyph name="pi" format="1">
  <advance width="583"/>
  <unicode hex="03C0"/>
  <outline>
    <contour>
      <point x="90" y="430" type="line"/>
      <point x="214" y="430" type="line"/>
      <point x="214" y="0" type="line"/>
      <point x="90" y="0" type="line"/>
    </contour>
    <contour>
      <point x="30" y="460" type="line"/>
      <point x="544" y="460" type="line"/>
      <point x="544" y="350" type="line"/>
      <point x="30" y="350" type="line"/>
    </contour>
    <contour>
      <point x="340" y="430" type="line"/>
      <point x="464" y="430" type="line"/>
      <point x="464" y="167" type="line" smooth="yes"/>
      <point x="464" y="101"/>
      <point x="487" y="97"/>
      <point x="517" y="97" type="curve"/>
      <point x="517" y="-9" type="line"/>
      <point x="402" y="-9"/>
      <point x="340" y="3"/>
      <point x="340" y="121" type="curve" smooth="yes"/>
    </contour>
  </outline>
</glyph>
<glyph name="uni1E9E" format="1">
  <advance width="826"/>
  <unicode hex="1E9E"/>
  <outline>
    <contour>
      <point x="80" y="370" type="line"/>
      <point x="219" y="354" type="line"/>
      <point x="219" y="0" type="line"/>
      <point x="80" y="0" type="line"/>
    </contour>
    <contour>
      <point x="478" y="345" type="curve"/>
      <point x="478" y="410" type="line"/>
      <point x="560" y="410"/>
      <point x="608" y="451"/>
      <point x="608" y="509" type="curve" smooth="yes"/>
      <point x="608" y="563"/>
      <point x="554" y="600"/>
      <point x="454" y="600" type="curve" smooth="yes"/>
      <point x="329" y="600"/>
      <point x="219" y="531"/>
      <point x="219" y="354" type="curve"/>
      <point x="80" y="370" type="line"/>
      <point x="80" y="592"/>
      <point x="234" y="710"/>
      <point x="449" y="710" type="curve" smooth="yes"/>
      <point x="633" y="710"/>
      <point x="750" y="640"/>
      <point x="750" y="526" type="curve" smooth="yes"/>
      <point x="750" y="417"/>
      <point x="641" y="345"/>
    </contour>
    <contour>
      <point x="520" y="-14" type="curve" smooth="yes"/>
      <point x="354" y="-14"/>
      <point x="276" y="100"/>
      <point x="276" y="209" type="curve"/>
      <point x="402" y="209" type="line"/>
      <point x="402" y="147"/>
      <point x="449" y="102"/>
      <point x="520" y="102" type="curve" smooth="yes"/>
      <point x="592" y="102"/>
      <point x="632" y="138"/>
      <point x="632" y="202" type="curve" smooth="yes"/>
      <point x="632" y="276"/>
      <point x="568" y="313"/>
      <point x="478" y="313" type="curve"/>
      <point x="478" y="380" type="line"/>
      <point x="641" y="380"/>
      <point x="770" y="324"/>
      <point x="770" y="185" type="curve" smooth="yes"/>
      <point x="770" y="66"/>
      <point x="664" y="-14"/>
    </contour>
  </outline>
</glyph>
<glyph name="quoteleft" format="1">
  <advance width="314"/>
  <unicode hex="2018"/>
  <outline>
    <contour>
      <point x="209" y="452" type="line"/>
      <point x="70" y="452" type="line"/>
      <point x="172" y="700" type="line"/>
      <point x="265" y="700" type="line"/>
    </contour>
  </outline>
</glyph>
<glyph name="quotesinglbase" format="1">
  <advance width="314"/>
  <unicode hex="201A"/>
  <outline>
    <contour>
      <point x="116" y="80" type="line"/>
      <point x="255" y="80" type="line"/>
      <point x="152" y="-168" type="line"/>
      <point x="60" y="-168" type="line"/>
    </contour>
  </outline>
</glyph>
<glyph name="guilsinglright" format="1">
  <advance width="350"/>
  <unicode hex="203A"/>
  <outline>
    <contour>
      <point x="226" y="275" type="line"/>
      <point x="318" y="255" type="line"/>
      <point x="138" y="6" type="line"/>
      <point x="56" y="65" type="line"/>
    </contour>
    <contour>
      <point x="318" y="255" type="line"/>
      <point x="226" y="225" type="line"/>
      <point x="56" y="445" type="line"/>
      <point x="138" y="504" type="line"/>
    </contour>
  </outline>
</glyph>
<glyph name="uni2076" format="1">
  <advance width="372"/>
  <unicode hex="2076"/>
  <outline>
    <contour>
      <point x="111" y="423" type="curve" smooth="yes"/>
      <point x="111" y="375"/>
      <point x="146" y="344"/>
      <point x="190" y="344" type="curve" smooth="yes"/>
      <point x="234" y="344"/>
      <point x="266" y="375"/>
      <point x="266" y="423" type="curve" smooth="yes"/>
      <point x="266" y="471"/>
      <point x="234" y="502"/>
      <point x="190" y="502" type="curve" smooth="yes"/>
      <point x="146" y="502"/>
      <point x="111" y="471"/>
    </contour>
    <contour>
      <point x="196" y="696" type="line"/>
      <point x="306" y="696" type="line"/>
      <point x="170" y="538" type="line"/>
      <point x="155" y="534" type="line"/>
      <point x="175" y="556"/>
      <point x="194" y="559"/>
      <point x="223" y="559" type="curve" smooth="yes"/>
      <point x="287" y="559"/>
      <point x="352" y="505"/>
      <point x="352" y="423" type="curve" smooth="yes"/>
      <point x="352" y="325"/>
      <point x="280" y="269"/>
      <point x="190" y="269" type="curve" smooth="yes"/>
      <point x="100" y="269"/>
      <point x="26" y="325"/>
      <point x="26" y="423" type="curve" smooth="yes"/>
      <point x="26" y="465"/>
      <point x="44" y="500"/>
      <point x="68" y="530" type="curve" smooth="yes"/>
    </contour>
  </outline>
</glyph>
<glyph name="uni2151" format="1">
  <advance width="854"/>
  <unicode hex="2151"/>
  <outline>
    <contour>
      <point x="590" y="700" type="line"/>
      <point x="694" y="700" type="line"/>
      <point x="174" y="0" type="line"/>
      <point x="70" y="0" type="line"/>
    </contour>
    <contour>
      <point x="26" y="584" type="line"/>
      <point x="26" y="662" type="line"/>
      <point x="210" y="702" type="line"/>
      <point x="210" y="274" type="line"/>
      <point x="126" y="274" type="line"/>
      <point x="126" y="610" type="line"/>
    </contour>
    <contour>
      <point x="747" y="277" type="curve" smooth="yes"/>
      <point x="747" y="325"/>
      <point x="714" y="356"/>
      <point x="670" y="356" type="curve" smooth="yes"/>
      <point x="626" y="356"/>
      <point x="592" y="325"/>
      <point x="592" y="277" type="curve" smooth="yes"/>
      <point x="592" y="229"/>
      <point x="626" y="198"/>
      <point x="670" y="198" type="curve" smooth="yes"/>
      <point x="714" y="198"/>
      <point x="747" y="229"/>
    </contour>
    <contour>
      <point x="664" y="4" type="line"/>
      <point x="554" y="4" type="line"/>
      <point x="688" y="162" type="line"/>
      <point x="704" y="166" type="line"/>
      <point x="684" y="144"/>
      <point x="665" y="141"/>
      <point x="636" y="141" type="curve" smooth="yes"/>
      <point x="572" y="141"/>
      <point x="508" y="195"/>
      <point x="508" y="277" type="curve" smooth="yes"/>
      <point x="508" y="375"/>
      <point x="580" y="431"/>
      <point x="670" y="431" type="curve" smooth="yes"/>
      <point x="760" y="431"/>
      <point x="833" y="375"/>
      <point x="833" y="277" type="curve" smooth="yes"/>
      <point x="833" y="235"/>
      <point x="814" y="200"/>
      <point x="790" y="170" type="curve" smooth="yes"/>
    </contour>
  </outline>
</glyph>
<glyph name="uni2155" format="1">
  <advance width="826"/>
  <unicode hex="2155"/>
  <outline>
    <contour>
      <point x="590" y="700" type="line"/>
      <point x="694" y="700" type="line"/>
      <point x="174" y="0" type="line"/>
      <point x="70" y="0" type="line"/>
    </contour>
    <contour>
      <point x="26" y="584" type="line"/>
      <point x="26" y="662" type="line"/>
      <point x="210" y="702" type="line"/>
      <point x="210" y="274" type="line"/>
      <point x="126" y="274" type="line"/>
      <point x="126" y="610" type="line"/>
    </contour>
    <contour>
      <point x="802" y="133" type="curve" smooth="yes"/>
      <point x="802" y="36"/>
      <point x="720" y="-10"/>
      <point x="639" y="-10" type="curve" smooth="yes"/>
      <point x="562" y="-10"/>
      <point x="513" y="21"/>
      <point x="477" y="55" type="curve"/>
      <point x="518" y="124" type="line"/>
      <point x="548" y="94"/>
      <point x="588" y="70"/>
      <point x="624" y="70" type="curve" smooth="yes"/>
      <point x="677" y="70"/>
      <point x="708" y="96"/>
      <point x="708" y="142" type="curve" smooth="yes"/>
      <point x="708" y="188"/>
      <point x="669" y="211"/>
      <point x="624" y="211" type="curve" smooth="yes"/>
      <point x="590" y="211"/>
      <point x="552" y="204"/>
      <point x="509" y="180" type="curve"/>
      <point x="567" y="228" type="line"/>
      <point x="598" y="261"/>
      <point x="635" y="272"/>
      <point x="675" y="272" type="curve" smooth="yes"/>
      <point x="743" y="272"/>
      <point x="802" y="218"/>
    </contour>
    <contour>
      <point x="630" y="343" type="line"/>
      <point x="596" y="232" type="line"/>
      <point x="509" y="180" type="line"/>
      <point x="566" y="418" type="line"/>
      <point x="796" y="418" type="line"/>
      <point x="796" y="343" type="line"/>
    </contour>
  </outline>
</glyph>
<glyph name="uni2158" format="1">
  <advance width="971"/>
  <unicode hex="2158"/>
  <outline>
    <contour>
      <point x="721" y="700" type="line"/>
      <point x="825" y="700" type="line"/>
      <point x="305" y="0" type="line"/>
      <point x="201" y="0" type="line"/>
    </contour>
    <contour>
      <point x="24" y="357" type="line"/>
      <point x="95" y="422" type="line"/>
      <point x="280" y="422" type="line" smooth="yes"/>
      <point x="290" y="432" type="line" smooth="yes"/>
      <point x="390" y="432" type="line"/>
      <point x="390" y="357" type="line"/>
    </contour>
    <contour>
      <point x="112" y="378" type="line"/>
      <point x="24" y="357" type="line"/>
      <point x="265" y="700" type="line"/>
      <point x="324" y="700" type="line"/>
      <point x="324" y="280" type="line"/>
      <point x="235" y="280" type="line"/>
      <point x="235" y="379" type="line" smooth="yes"/>
      <point x="244" y="385" type="line" smooth="yes"/>
      <point x="244" y="564" type="line"/>
    </contour>
    <contour>
      <point x="941" y="133" type="curve" smooth="yes"/>
      <point x="941" y="36"/>
      <point x="859" y="-10"/>
      <point x="778" y="-10" type="curve" smooth="yes"/>
      <point x="701" y="-10"/>
      <point x="653" y="21"/>
      <point x="617" y="55" type="curve"/>
      <point x="656" y="122" type="line"/>
      <point x="686" y="92"/>
      <point x="726" y="70"/>
      <point x="762" y="70" type="curve" smooth="yes"/>
      <point x="815" y="70"/>
      <point x="848" y="95"/>
      <point x="848" y="141" type="curve" smooth="yes"/>
      <point x="848" y="187"/>
      <point x="807" y="211"/>
      <point x="762" y="211" type="curve" smooth="yes"/>
      <point x="728" y="211"/>
      <point x="691" y="204"/>
      <point x="648" y="180" type="curve"/>
      <point x="707" y="228" type="line"/>
      <point x="738" y="261"/>
      <point x="774" y="272"/>
      <point x="814" y="272" type="curve" smooth="yes"/>
      <point x="882" y="272"/>
      <point x="941" y="218"/>
    </contour>
    <contour>
      <point x="770" y="343" type="line"/>
      <point x="736" y="232" type="line"/>
      <point x="648" y="180" type="line"/>
      <point x="706" y="418" type="line"/>
      <point x="935" y="418" type="line"/>
      <point x="935" y="343" type="line"/>
    </contour>
  </outline>
</glyph>
<glyph name="threeeighths" format="1">
  <advance width="921"/>
  <unicode hex="215C"/>
  <outline>
    <contour>
      <point x="672" y="700" type="line"/>
      <point x="776" y="700" type="line"/>
      <point x="256" y="0" type="line"/>
      <point x="152" y="0" type="line"/>
    </contour>
    <contour>
      <point x="155" y="485" type="curve"/>
      <point x="155" y="526" type="line"/>
      <point x="203" y="526"/>
      <point x="234" y="555"/>
      <point x="234" y="588" type="curve" smooth="yes"/>
      <point x="234" y="618"/>
      <point x="217" y="637"/>
      <point x="182" y="637" type="curve" smooth="yes"/>
      <point x="148" y="637"/>
      <point x="123" y="614"/>
      <point x="123" y="582" type="curve"/>
      <point x="42" y="582" type="line"/>
      <point x="42" y="654"/>
      <point x="99" y="708"/>
      <point x="183" y="708" type="curve" smooth="yes"/>
      <point x="271" y="708"/>
      <point x="322" y="654"/>
      <point x="322" y="592" type="curve" smooth="yes"/>
      <point x="322" y="524"/>
      <point x="249" y="485"/>
    </contour>
    <contour>
      <point x="178" y="271" type="curve" smooth="yes"/>
      <point x="82" y="271"/>
      <point x="24" y="335"/>
      <point x="24" y="407" type="curve"/>
      <point x="110" y="407" type="line"/>
      <point x="110" y="365"/>
      <point x="142" y="343"/>
      <point x="181" y="343" type="curve" smooth="yes"/>
      <point x="220" y="343"/>
      <point x="246" y="363"/>
      <point x="246" y="402" type="curve" smooth="yes"/>
      <point x="246" y="442"/>
      <point x="215" y="467"/>
      <point x="155" y="467" type="curve"/>
      <point x="155" y="513" type="line"/>
      <point x="257" y="513"/>
      <point x="334" y="477"/>
      <point x="334" y="393" type="curve" smooth="yes"/>
      <point x="334" y="321"/>
      <point x="272" y="271"/>
    </contour>
    <contour>
      <point x="607" y="319" type="curve" smooth="yes"/>
      <point x="607" y="386"/>
      <point x="668" y="429"/>
      <point x="742" y="429" type="curve" smooth="yes"/>
      <point x="816" y="429"/>
      <point x="876" y="386"/>
      <point x="876" y="319" type="curve" smooth="yes"/>
      <point x="876" y="246"/>
      <point x="811" y="208"/>
      <point x="742" y="208" type="curve" smooth="yes"/>
      <point x="673" y="208"/>
      <point x="607" y="246"/>
    </contour>
    <contour>
      <point x="689" y="311" type="curve" smooth="yes"/>
      <point x="689" y="279"/>
      <point x="713" y="256"/>
      <point x="742" y="256" type="curve" smooth="yes"/>
      <point x="771" y="256"/>
      <point x="794" y="279"/>
      <point x="794" y="311" type="curve" smooth="yes"/>
      <point x="794" y="343"/>
      <point x="773" y="364"/>
      <point x="742" y="364" type="curve" smooth="yes"/>
      <point x="711" y="364"/>
      <point x="689" y="343"/>
    </contour>
    <contour>
      <point x="592" y="114" type="curve" smooth="yes"/>
      <point x="592" y="199"/>
      <point x="673" y="237"/>
      <point x="742" y="237" type="curve" smooth="yes"/>
      <point x="811" y="237"/>
      <point x="890" y="199"/>
      <point x="890" y="114" type="curve" smooth="yes"/>
      <point x="890" y="41"/>
      <point x="822" y="-9"/>
      <point x="742" y="-9" type="curve" smooth="yes"/>
      <point x="662" y="-9"/>
      <point x="592" y="41"/>
    </contour>
    <contour>
      <point x="678" y="127" type="curve" smooth="yes"/>
      <point x="678" y="85"/>
      <point x="708" y="62"/>
      <point x="742" y="62" type="curve" smooth="yes"/>
      <point x="776" y="62"/>
      <point x="805" y="85"/>
      <point x="805" y="127" type="curve" smooth="yes"/>
      <point x="805" y="163"/>
      <point x="776" y="189"/>
      <point x="742" y="189" type="curve" smooth="yes"/>
      <point x="708" y="189"/>
      <point x="678" y="163"/>
    </contour>
  </outline>
</glyph>
<glyph name="uniFF12" format="1">
  <advance width="615"/>
  <unicode hex="FF12"/>
  <outline>
    <contour>
      <point x="17" y="0" type="line"/>
      <point x="334" y="332" type="line" smooth="yes"/>
      <point x="387" y="389"/>
      <point x="420" y="432"/>
      <point x="420" y="488" type="curve" smooth="yes"/>
      <point x="420" y="537"/>
      <point x="386" y="587"/>
      <point x="316" y="587" type="curve" smooth="yes"/>
      <point x="244" y="587"/>
      <point x="194" y="530"/>
      <point x="194" y="446" type="curve"/>
      <point x="52" y="446" type="line"/>
      <point x="52" y="595"/>
      <point x="149" y="713"/>
      <point x="320" y="713" type="curve" smooth="yes"/>
      <point x="488" y="713"/>
      <point x="568" y="596"/>
      <point x="568" y="491" type="curve" smooth="yes"/>
      <point x="568" y="417"/>
      <point x="528" y="355"/>
      <point x="470" y="302" type="curve" smooth="yes"/>
      <point x="288" y="132" type="line"/>
      <point x="581" y="132" type="line"/>
      <point x="581" y="0" type="line"/>
    </contour>
  </outline>
</glyph>
<glyph name="uniFF15" format="1">
  <advance width="615"/>
  <unicode hex="FF15"/>
  <outline>
    <contour>
      <point x="574" y="226" type="curve" smooth="yes"/>
      <point x="574" y="62"/>
      <point x="437" y="-12"/>
      <point x="302" y="-12" type="curve" smooth="yes"/>
      <point x="173" y="-12"/>
      <point x="91" y="38"/>
      <point x="31" y="96" type="curve"/>
      <point x="99" y="208" type="line"/>
      <point x="147" y="156"/>
      <point x="215" y="120"/>
      <point x="275" y="120" type="curve" smooth="yes"/>
      <point x="364" y="120"/>
      <point x="418" y="162"/>
      <point x="418" y="238" type="curve" smooth="yes"/>
      <point x="418" y="314"/>
      <point x="349" y="355"/>
      <point x="275" y="355" type="curve" smooth="yes"/>
      <point x="217" y="355"/>
      <point x="155" y="345"/>
      <point x="84" y="305" type="curve"/>
      <point x="182" y="384" type="line"/>
      <point x="232" y="438"/>
      <point x="294" y="457"/>
      <point x="362" y="457" type="curve" smooth="yes"/>
      <point x="475" y="457"/>
      <point x="574" y="370"/>
    </contour>
    <contour>
      <point x="287" y="574" type="line"/>
      <point x="230" y="391" type="line"/>
      <point x="84" y="305" type="line"/>
      <point x="180" y="700" type="line"/>
      <point x="562" y="700" type="line"/>
      <point x="562" y="574" type="line"/>
    </contour>
  </outline>
</glyph>
<glyph name="uniFF16" format="1">
  <advance width="615"/>
  <unicode hex="FF16"/>
  <outline>
    <contour>
      <point x="177" y="241" type="curve" smooth="yes"/>
      <point x="177" y="163"/>
      <point x="233" y="110"/>
      <point x="307" y="110" type="curve" smooth="yes"/>
      <point x="381" y="110"/>
      <point x="436" y="163"/>
      <point x="436" y="241" type="curve" smooth="yes"/>
      <point x="436" y="319"/>
      <point x="381" y="374"/>
      <point x="307" y="374" type="curve" smooth="yes"/>
      <point x="233" y="374"/>
      <point x="177" y="319"/>
    </contour>
    <contour>
      <point x="318" y="698" type="line"/>
      <point x="500" y="698" type="line"/>
      <point x="276" y="434" type="line"/>
      <point x="250" y="425" type="line"/>
      <point x="284" y="460"/>
      <point x="316" y="469"/>
      <point x="364" y="469" type="curve" smooth="yes"/>
      <point x="471" y="469"/>
      <point x="578" y="379"/>
      <point x="578" y="241" type="curve" smooth="yes"/>
      <point x="578" y="77"/>
      <point x="457" y="-14"/>
      <point x="307" y="-14" type="curve" smooth="yes"/>
      <point x="157" y="-14"/>
      <point x="36" y="77"/>
      <point x="36" y="241" type="curve" smooth="yes"/>
      <point x="36" y="311"/>
      <point x="66" y="370"/>
      <point x="106" y="420" type="curve" smooth="yes"/>
    </contour>
  </outline>
</glyph>
<glyph name="uniFF18" format="1">
  <advance width="615"/>
  <unicode hex="FF18"/>
  <outline>
    <contour>
      <point x="92" y="531" type="curve" smooth="yes"/>
      <point x="92" y="643"/>
      <point x="192" y="714"/>
      <point x="316" y="714" type="curve" smooth="yes"/>
      <point x="440" y="714"/>
      <point x="540" y="643"/>
      <point x="540" y="531" type="curve" smooth="yes"/>
      <point x="540" y="409"/>
      <point x="431" y="346"/>
      <point x="316" y="346" type="curve" smooth="yes"/>
      <point x="201" y="346"/>
      <point x="92" y="409"/>
    </contour>
    <contour>
      <point x="228" y="516" type="curve" smooth="yes"/>
      <point x="228" y="464"/>
      <point x="267" y="428"/>
      <point x="316" y="428" type="curve" smooth="yes"/>
      <point x="365" y="428"/>
      <point x="404" y="464"/>
      <point x="404" y="516" type="curve" smooth="yes"/>
      <point x="404" y="568"/>
      <point x="368" y="606"/>
      <point x="316" y="606" type="curve" smooth="yes"/>
      <point x="264" y="606"/>
      <point x="228" y="568"/>
    </contour>
    <contour>
      <point x="68" y="190" type="curve" smooth="yes"/>
      <point x="68" y="332"/>
      <point x="201" y="394"/>
      <point x="316" y="394" type="curve" smooth="yes"/>
      <point x="431" y="394"/>
      <point x="564" y="332"/>
      <point x="564" y="190" type="curve" smooth="yes"/>
      <point x="564" y="68"/>
      <point x="450" y="-14"/>
      <point x="316" y="-14" type="curve" smooth="yes"/>
      <point x="182" y="-14"/>
      <point x="68" y="68"/>
    </contour>
    <contour>
      <point x="210" y="211" type="curve" smooth="yes"/>
      <point x="210" y="143"/>
      <point x="260" y="105"/>
      <point x="316" y="105" type="curve" smooth="yes"/>
      <point x="372" y="105"/>
      <point x="422" y="143"/>
      <point x="422" y="211" type="curve" smooth="yes"/>
      <point x="422" y="269"/>
      <point x="372" y="316"/>
      <point x="316" y="316" type="curve" smooth="yes"/>
      <point x="260" y="316"/>
      <point x="210" y="269"/>
    </contour>
  </outline>
</glyph>
<glyph name="abreve.alt" format="1">
  <advance width="602"/>
  <outline>
    <contour>
      <point x="413" y="460" type="line"/>
      <point x="542" y="460" type="line"/>
      <point x="542" y="0" type="line"/>
      <point x="413" y="0" type="line"/>
    </contour>
    <contour>
      <point x="33" y="230" type="curve" smooth="yes"/>
      <point x="33" y="384"/>
      <point x="138" y="470"/>
      <point x="254" y="470" type="curve" smooth="yes"/>
      <point x="369" y="470"/>
      <point x="452" y="379"/>
      <point x="452" y="230" type="curve" smooth="yes"/>
      <point x="452" y="81"/>
      <point x="369" y="-10"/>
      <point x="254" y="-10" type="curve" smooth="yes"/>
      <point x="138" y="-10"/>
      <point x="33" y="76"/>
    </contour>
    <contour>
      <point x="168" y="230" type="curve" smooth="yes"/>
      <point x="168" y="148"/>
      <point x="224" y="98"/>
      <point x="292" y="98" type="curve" smooth="yes"/>
      <point x="348" y="98"/>
      <point x="412" y="146"/>
      <point x="412" y="230" type="curve" smooth="yes"/>
      <point x="412" y="314"/>
      <point x="348" y="362"/>
      <point x="292" y="362" type="curve" smooth="yes"/>
      <point x="224" y="362"/>
      <point x="168" y="312"/>
    </contour>
    <contour>
      <point x="133" y="674" type="curve"/>
      <point x="224" y="674" type="line"/>
      <point x="224" y="641"/>
      <point x="248" y="610"/>
      <point x="296" y="610" type="curve" smooth="yes"/>
      <point x="344" y="610"/>
      <point x="368" y="641"/>
      <point x="368" y="674" type="curve"/>
      <point x="459" y="674" type="line"/>
      <point x="459" y="596"/>
      <point x="401" y="530"/>
      <point x="296" y="530" type="curve" smooth="yes"/>
      <point x="191" y="530"/>
      <point x="133" y="596"/>
    </contour>
  </outline>
</glyph>
<glyph name="atilde.alt" format="1">
  <advance width="602"/>
  <outline>
    <contour>
      <point x="413" y="460" type="line"/>
      <point x="542" y="460" type="line"/>
      <point x="542" y="0" type="line"/>
      <point x="413" y="0" type="line"/>
    </contour>
    <contour>
      <point x="33" y="230" type="curve" smooth="yes"/>
      <point x="33" y="384"/>
      <point x="138" y="470"/>
      <point x="254" y="470" type="curve" smooth="yes"/>
      <point x="369" y="470"/>
      <point x="452" y="379"/>
      <point x="452" y="230" type="curve" smooth="yes"/>
      <point x="452" y="81"/>
      <point x="369" y="-10"/>
      <point x="254" y="-10" type="curve" smooth="yes"/>
      <point x="138" y="-10"/>
      <point x="33" y="76"/>
    </contour>
    <contour>
      <point x="168" y="230" type="curve" smooth="yes"/>
      <point x="168" y="148"/>
      <point x="224" y="98"/>
      <point x="292" y="98" type="curve" smooth="yes"/>
      <point x="348" y="98"/>
      <point x="412" y="146"/>
      <point x="412" y="230" type="curve" smooth="yes"/>
      <point x="412" y="314"/>
      <point x="348" y="362"/>
      <point x="292" y="362" type="curve" smooth="yes"/>
      <point x="224" y="362"/>
      <point x="168" y="312"/>
    </contour>
    <contour>
      <point x="122" y="586" type="line"/>
      <point x="132" y="635"/>
      <point x="178" y="677"/>
      <point x="236" y="677" type="curve" smooth="yes"/>
      <point x="302" y="677"/>
      <point x="313" y="626"/>
      <point x="369" y="626" type="curve" smooth="yes"/>
      <point x="393" y="626"/>
      <point x="412" y="646"/>
      <point x="432" y="678" type="curve"/>
      <point x="496" y="612" type="line"/>
      <point x="480" y="575"/>
      <point x="428" y="531"/>
      <point x="370" y="531" type="curve" smooth="yes"/>
      <point x="315" y="531"/>
      <point x="284" y="582"/>
      <point x="236" y="582" type="curve" smooth="yes"/>
      <point x="197" y="582"/>
      <point x="187" y="547"/>
      <point x="187" y="532" type="curve"/>
    </contour>
  </outline>
</glyph>
